<svg width="51" height="51" viewBox="0 0 51 51" fill="none" xmlns="http://www.w3.org/2000/svg">
<rect x="0.586914" y="0.930115" width="50" height="50" rx="25" fill="#DFAB00"/>
<g clip-path="url(#clip0_31_13827)">
<path d="M22.5519 37.9301H17.5869C16.526 37.9301 15.5086 37.5087 14.7585 36.7585C14.0083 36.0084 13.5869 34.991 13.5869 33.9301V28.9301C13.5869 27.8692 14.0083 26.8518 14.7585 26.1017C15.5086 25.3515 16.526 24.9301 17.5869 24.9301H26.4439C26.9851 24.9304 27.5171 25.0703 27.9883 25.3364C28.4596 25.6026 28.8542 25.9858 29.1339 26.4491L32.3509 22.9141C32.617 22.6215 32.9382 22.3842 33.296 22.2158C33.6539 22.0473 34.0414 21.9511 34.4365 21.9325C34.8315 21.9139 35.2264 21.9734 35.5985 22.1075C35.9705 22.2416 36.3125 22.4478 36.6049 22.7141C37.1883 23.25 37.5379 23.9936 37.5785 24.7847C37.6191 25.5759 37.3474 26.3513 36.8219 26.9441L30.0219 34.5811C29.083 35.6341 27.9322 36.4768 26.6448 37.054C25.3575 37.6311 23.9627 37.9297 22.5519 37.9301ZM17.5869 26.9301C17.0565 26.9301 16.5478 27.1408 16.1727 27.5159C15.7976 27.891 15.5869 28.3997 15.5869 28.9301V33.9301C15.5869 34.4605 15.7976 34.9693 16.1727 35.3443C16.5478 35.7194 17.0565 35.9301 17.5869 35.9301H22.5519C23.6798 35.9297 24.7949 35.6909 25.8241 35.2293C26.8533 34.7678 27.7733 34.094 28.5239 33.2521L35.3289 25.6141C35.5056 25.4151 35.597 25.1547 35.5836 24.8889C35.5701 24.6231 35.4528 24.3732 35.2569 24.1931C35.0577 24.014 34.7966 23.9197 34.5289 23.9301C34.3962 23.9357 34.266 23.9677 34.1458 24.0242C34.0256 24.0807 33.9179 24.1605 33.8289 24.2591L29.4029 29.1301C29.2086 29.6679 28.8719 30.1428 28.4288 30.5042C27.9857 30.8656 27.4528 31.0999 26.8869 31.1821L21.7259 31.9201C21.4633 31.9578 21.1966 31.8896 20.9843 31.7306C20.772 31.5715 20.6316 31.3347 20.5939 31.0721C20.5563 30.8096 20.6244 30.5428 20.7835 30.3305C20.9425 30.1182 21.1793 29.9778 21.4419 29.9401L26.6039 29.2031C26.8904 29.1631 27.1511 29.0157 27.3332 28.7909C27.5153 28.5661 27.6053 28.2805 27.585 27.9919C27.5647 27.7033 27.4356 27.4332 27.2238 27.2361C27.012 27.039 26.7332 26.9296 26.4439 26.9301H17.5869ZM24.5869 23.0041C24.1337 23.0053 23.6937 22.8515 23.3399 22.5681C21.6279 21.1941 19.5869 19.1301 19.5869 17.1301C19.5624 16.3085 19.8642 15.5106 20.4264 14.9109C20.9886 14.3112 21.7654 13.9586 22.5869 13.9301C23.3343 13.933 24.0513 14.2259 24.5869 14.7471C25.1225 14.2259 25.8396 13.933 26.5869 13.9301C27.4084 13.9586 28.1852 14.3112 28.7474 14.9109C29.3096 15.5106 29.6115 16.3085 29.5869 17.1301C29.5869 19.1301 27.5459 21.1941 25.8329 22.5691C25.4793 22.8519 25.0397 23.0054 24.5869 23.0041ZM22.5869 15.9301C22.2963 15.9593 22.0287 16.1013 21.8417 16.3257C21.6547 16.5501 21.5632 16.839 21.5869 17.1301C21.5869 18.0301 22.7379 19.5201 24.5929 21.0091C26.4359 19.5201 27.5869 18.0301 27.5869 17.1301C27.6106 16.839 27.5192 16.5501 27.3322 16.3257C27.1452 16.1013 26.8776 15.9593 26.5869 15.9301C26.2963 15.9593 26.0287 16.1013 25.8417 16.3257C25.6547 16.5501 25.5632 16.839 25.5869 17.1301C25.5869 17.3953 25.4816 17.6497 25.294 17.8372C25.1065 18.0248 24.8521 18.1301 24.5869 18.1301C24.3217 18.1301 24.0673 18.0248 23.8798 17.8372C23.6923 17.6497 23.5869 17.3953 23.5869 17.1301C23.6106 16.839 23.5192 16.5501 23.3322 16.3257C23.1452 16.1013 22.8776 15.9593 22.5869 15.9301Z" fill="#FEFEE8"/>
</g>
<defs>
<clipPath id="clip0_31_13827">
<rect width="24" height="24" fill="white" transform="translate(13.5869 13.9301)"/>
</clipPath>
</defs>
</svg>
